<?xml version="1.0" encoding="UTF-8"?>
<svg version="1.1" xmlns="http://www.w3.org/2000/svg" width="154" height="154">
<path d="M0 0 C18.48 0 36.96 0 56 0 C56 26.07 56 52.14 56 79 C26.70554124 90.71778351 26.70554124 90.71778351 15.0625 95.125 C13.7961841 95.60927079 12.52990825 96.09364631 11.26367188 96.578125 C10.07451172 97.02929688 8.88535156 97.48046875 7.66015625 97.9453125 C6.61480713 98.34250488 5.56945801 98.73969727 4.49243164 99.14892578 C2 100 2 100 0 100 C0 67 0 34 0 0 Z " fill="#00AE42" transform="translate(19,0)"/>
<path d="M0 0 C18.70519797 5.87877651 37.39892476 11.79964159 56 18 C56 40.44 56 62.88 56 86 C37.52 86 19.04 86 0 86 C0 57.62 0 29.24 0 0 Z " fill="#00AE41" transform="translate(82,67)"/>
<path d="M0 0 C18.48 0 36.96 0 56 0 C56 24.75 56 49.5 56 75 C37.26415653 68.13019073 18.60069656 61.21038237 0 54 C0 36.18 0 18.36 0 0 Z " fill="#00AD41" transform="translate(82,0)"/>
<path d="M0 0 C0 20.79 0 41.58 0 63 C-18.48 63 -36.96 63 -56 63 C-56 48.15 -56 33.3 -56 18 C-49.14886492 15.6518381 -42.29753818 13.30455832 -35.44322968 10.96572876 C-32.25145081 9.87634674 -29.0602455 8.78534859 -25.87036133 7.69042969 C-22.21059663 6.43516527 -18.54887863 5.18575657 -14.88671875 3.9375 C-13.7428923 3.54377197 -12.59906586 3.15004395 -11.420578 2.74438477 C-10.35970474 2.38401123 -9.29883148 2.0236377 -8.20581055 1.65234375 C-7.27093307 1.33257568 -6.3360556 1.01280762 -5.37284851 0.68334961 C-3 0 -3 0 0 0 Z " fill="#00AE42" transform="translate(75,91)"/>
</svg>
