<?xml version="1.0" encoding="UTF-8"?>
<svg version="1.1" xmlns="http://www.w3.org/2000/svg" width="327" height="109">
<path d="M0 0 C1.08514389 -0.00845947 2.17028778 -0.01691895 3.28831482 -0.02563477 C4.47389481 -0.01956207 5.65947479 -0.01348938 6.88098145 -0.00723267 C8.13335098 -0.01248962 9.38572052 -0.01774658 10.67604065 -0.02316284 C14.10797204 -0.03410547 17.53936096 -0.0315391 20.97126198 -0.02202559 C24.56353101 -0.01442773 28.15577693 -0.02147494 31.74804688 -0.02618408 C37.7805192 -0.03164128 43.81288132 -0.02445102 49.84533691 -0.01016235 C56.81865568 0.00616418 63.79171131 0.00087564 70.76502371 -0.01564157 C76.75325062 -0.02925751 82.74139833 -0.03117559 88.72963572 -0.02332556 C92.30567647 -0.01864961 95.88159355 -0.01802197 99.45762634 -0.02793503 C103.44390077 -0.03821353 107.42988068 -0.02396542 111.4161377 -0.00723267 C112.60171768 -0.01330536 113.78729767 -0.01937805 115.00880432 -0.02563477 C116.09394821 -0.01717529 117.1790921 -0.00871582 118.29711914 0 C119.71073101 0.00169662 119.71073101 0.00169662 121.1529007 0.00342751 C124.13215963 0.4541061 125.50873026 1.28063275 127.64855957 3.38095093 C128.15649414 6.41696167 128.15649414 6.41696167 128.1661377 10.1914978 C128.17314697 10.87962051 128.18015625 11.56774323 128.18737793 12.27671814 C128.20498419 14.55145619 128.19332728 16.82495023 128.17980957 19.09970093 C128.18250376 20.68006631 128.18638558 22.26043009 128.19140625 23.84078979 C128.19730481 27.15300274 128.18872731 30.46478422 128.17004395 33.77694702 C128.14725361 38.02439464 128.16037486 42.27083136 128.1843338 46.51824188 C128.19878246 49.78164295 128.19419021 53.04480402 128.18382263 56.30821228 C128.18115274 57.87432474 128.18443437 59.44045894 128.19374084 61.00654602 C128.20389184 63.19508643 128.18842911 65.38198601 128.1661377 67.57040405 C128.16295532 68.81600098 128.15977295 70.0615979 128.15649414 71.34494019 C127.64855957 74.38095093 127.64855957 74.38095093 125.95127869 76.04689217 C123.17615976 77.65463134 121.49232768 77.75806697 118.29711914 77.76190186 C117.21197525 77.77036133 116.12683136 77.7788208 115.00880432 77.78753662 C113.23043434 77.77842758 113.23043434 77.77842758 111.4161377 77.76913452 C110.16376816 77.77439148 108.91139862 77.77964844 107.62107849 77.7850647 C104.1891471 77.79600733 100.75775818 77.79344096 97.32585716 77.78392744 C93.73358813 77.77632959 90.14134221 77.7833768 86.54907227 77.78808594 C80.51659994 77.79354314 74.48423782 77.78635287 68.45178223 77.77206421 C61.47846346 77.75573768 54.50540783 77.76102622 47.53209543 77.77754343 C41.54386852 77.79115937 35.55572081 77.79307745 29.56748343 77.78522742 C25.99144267 77.78055146 22.41552559 77.77992382 18.8394928 77.78983688 C14.85321837 77.80011538 10.86723846 77.78586727 6.88098145 77.76913452 C5.69540146 77.77520721 4.50982147 77.78127991 3.28831482 77.78753662 C2.20317093 77.77907715 1.11802704 77.77061768 0 77.76190186 C-0.94240791 77.76077078 -1.88481583 77.7596397 -2.85578156 77.75847435 C-5.83504049 77.30779576 -7.21161112 76.4812691 -9.35144043 74.38095093 C-9.859375 71.34494019 -9.859375 71.34494019 -9.86901855 67.57040405 C-9.87602783 66.88228134 -9.88303711 66.19415863 -9.89025879 65.48518372 C-9.90786505 63.21044567 -9.89620814 60.93695162 -9.88269043 58.66220093 C-9.88538462 57.08183554 -9.88926644 55.50147177 -9.89428711 53.92111206 C-9.90018567 50.60889912 -9.89160817 47.29711763 -9.8729248 43.98495483 C-9.85013447 39.73750721 -9.86325572 35.4910705 -9.88721466 31.24365997 C-9.90166332 27.98025891 -9.89707107 24.71709784 -9.88670349 21.45368958 C-9.88403359 19.88757711 -9.88731523 18.32144292 -9.8966217 16.75535583 C-9.9067727 14.56681543 -9.89130997 12.37991584 -9.86901855 10.1914978 C-9.86583618 8.94590088 -9.86265381 7.70030396 -9.859375 6.41696167 C-9.35144043 3.38095093 -9.35144043 3.38095093 -7.65415955 1.71500969 C-4.87904062 0.10727052 -3.19520854 0.00383489 0 0 Z " fill="#FC9700" transform="translate(179.3514404296875,15.619049072265625)"/>
<path d="M0 0 C2.64 0 5.28 0 8 0 C8 4.95 8 9.9 8 15 C9.32 14.01 10.64 13.02 12 12 C16.5040051 11.25299428 20.70555085 11.47671205 24.9375 13.1875 C28.42327069 16.25075303 29.86310832 18.88760091 30.43359375 23.5234375 C30.44711026 36.85071444 30.44711026 36.85071444 26 42 C21.97485324 44.7125989 18.82452729 45.6158971 14 45 C11.125 43.5 11.125 43.5 9 42 C8.67 42.66 8.34 43.32 8 44 C5.36 44 2.72 44 0 44 C0 29.48 0 14.96 0 0 Z " fill="#070400" transform="translate(264,31)"/>
<path d="M0 0 C3.98187412 2.32492868 6.34211331 5.45154038 7.60546875 9.921875 C7.66734375 10.623125 7.72921875 11.324375 7.79296875 12.046875 C4.36489293 14.15646012 1.78473294 14.60572199 -2.20703125 14.046875 C-4.20703125 12.38020833 -6.20703125 10.71354167 -8.20703125 9.046875 C-11.46473682 8.53586236 -13.20203747 8.36491494 -15.95703125 10.234375 C-19.40513474 15.23412505 -19.89658481 20.11253528 -19.20703125 26.046875 C-17.65431927 30.11350162 -16.84423723 31.62207102 -13.20703125 34.046875 C-10.20410054 34.11636065 -10.20410054 34.11636065 -7.20703125 33.046875 C-5.08392707 30.80900843 -3.58205357 28.79691965 -2.20703125 26.046875 C4.41796875 26.796875 4.41796875 26.796875 7.79296875 29.046875 C7.40312523 34.50468427 5.63756934 37.20227441 1.79296875 41.046875 C-3.80118273 45.24248861 -10.5267356 44.65262339 -17.20703125 44.046875 C-22.64025164 42.36751597 -26.06680885 38.68154059 -29.20703125 34.046875 C-32.65123216 27.06507112 -32.20946498 18.38267009 -29.95703125 11.046875 C-27.7899362 5.60925577 -25.30114645 2.37977531 -20.01953125 -0.265625 C-13.20656254 -3.01315009 -6.76599183 -2.86305443 0 0 Z " fill="#DDDDDD" transform="translate(58.20703125,31.953125)"/>
<path d="M0 0 C2.97 0 5.94 0 9 0 C9 5.94 9 11.88 9 18 C14.61 18 20.22 18 26 18 C26 12.06 26 6.12 26 0 C28.97 0 31.94 0 35 0 C35 14.52 35 29.04 35 44 C32.03 44 29.06 44 26 44 C26 37.73 26 31.46 26 25 C20.39 25 14.78 25 9 25 C9 31.27 9 37.54 9 44 C6.03 44 3.06 44 0 44 C0 29.48 0 14.96 0 0 Z " fill="#030200" transform="translate(184,31)"/>
<path d="M0 0 C4.6437708 3.62214122 6.74478916 6.55260127 7.50390625 12.3125 C7.75828516 18.87711713 7.30553936 23.29222079 3.125 28.4375 C-1.84381907 32.39227436 -5.91064921 33.08481807 -12.22265625 32.81640625 C-17.76141255 32.02515535 -20.7473675 29.82535538 -24.3125 25.4375 C-26.81557357 20.37693821 -26.70366914 14.91834679 -25.875 9.4375 C-24.16207986 4.69286281 -21.94845749 2.11104196 -17.6875 -0.5625 C-11.66253448 -2.14281882 -5.74634299 -2.86084029 0 0 Z M-13.0625 8.5625 C-15.57887606 11.16564765 -15.80447638 12.84079542 -15.875 16.4375 C-15.05792938 19.82187013 -15.05792938 19.82187013 -12.875 22.4375 C-9.28114946 23.41623538 -9.28114946 23.41623538 -5.875 23.4375 C-3.1488085 18.32514979 -3.1488085 18.32514979 -3.5625 12.625 C-4.64823718 9.40785256 -4.64823718 9.40785256 -6.875 7.4375 C-10.69211373 7.13260132 -10.69211373 7.13260132 -13.0625 8.5625 Z " fill="#DEDEDE" transform="translate(95.875,43.5625)"/>
<path d="M0 0 C2.7342966 1.36149893 3.89961363 2.63706533 6 5 C6.98477088 8.53045723 7.11805429 11.86828252 7.09765625 15.51953125 C7.09443359 16.54111328 7.09121094 17.56269531 7.08789062 18.61523438 C7.07951172 19.67033203 7.07113281 20.72542969 7.0625 21.8125 C7.05798828 22.88693359 7.05347656 23.96136719 7.04882812 25.06835938 C7.03707744 27.71226357 7.019143 30.356139 7 33 C2.05 33.495 2.05 33.495 -3 34 C-3.66 25.75 -4.32 17.5 -5 9 C-6.98 9.66 -8.96 10.32 -11 11 C-11.87829054 13.63487162 -12.25985103 15.71452023 -12.53515625 18.44921875 C-12.66567383 19.72055664 -12.66567383 19.72055664 -12.79882812 21.01757812 C-12.9293457 22.33918945 -12.9293457 22.33918945 -13.0625 23.6875 C-13.15337891 24.58017578 -13.24425781 25.47285156 -13.33789062 26.39257812 C-13.56164017 28.59474468 -13.78122027 30.79733415 -14 33 C-16.97 33 -19.94 33 -23 33 C-23 22.44 -23 11.88 -23 1 C-19.04 1 -15.08 1 -11 1 C-7.50790866 -0.74604567 -3.81000569 -0.5689438 0 0 Z " fill="#E4E4E4" transform="translate(155,42)"/>
<path d="M0 0 C2.97 0 5.94 0 9 0 C9.01981934 0.68626465 9.03963867 1.3725293 9.06005859 2.07958984 C9.15510945 5.17845779 9.26486847 8.27663294 9.375 11.375 C9.4059375 12.45523438 9.436875 13.53546875 9.46875 14.6484375 C9.50742188 15.6796875 9.54609375 16.7109375 9.5859375 17.7734375 C9.6173584 18.72653809 9.6487793 19.67963867 9.68115234 20.66162109 C9.78555796 23.18895176 9.78555796 23.18895176 12 25 C15.465 24.505 15.465 24.505 19 24 C19.33 16.08 19.66 8.16 20 0 C22.97 0 25.94 0 29 0 C29 10.56 29 21.12 29 32 C26.36 32 23.72 32 21 32 C20.67 31.01 20.34 30.02 20 29 C19.18015625 29.72896484 19.18015625 29.72896484 18.34375 30.47265625 C14.24991431 33.14047251 9.71536494 32.65929115 5 32 C1.83379905 29.81381363 1.2103613 28.63108389 0 25 C-0.08266486 23.08093083 -0.10740663 21.15910526 -0.09765625 19.23828125 C-0.09443359 18.12001953 -0.09121094 17.00175781 -0.08789062 15.84960938 C-0.07951172 14.68236328 -0.07113281 13.51511719 -0.0625 12.3125 C-0.05573242 10.54422852 -0.05573242 10.54422852 -0.04882812 8.74023438 C-0.03703273 5.82677211 -0.0205727 2.91341137 0 0 Z " fill="#060300" transform="translate(227,43)"/>
<path d="M0 0 C0.66 0.33 1.32 0.66 2 1 C1.25 7.75 1.25 7.75 -1 10 C-3.31 10.66 -5.62 11.32 -8 12 C-8.66 18.93 -9.32 25.86 -10 33 C-13.3 33 -16.6 33 -20 33 C-20 22.44 -20 11.88 -20 1 C-16.7 1 -13.4 1 -10 1 C-6.49852959 -0.1671568 -3.67329964 -0.13357453 0 0 Z " fill="#E0E0E0" transform="translate(128,42)"/>
<path d="M0 0 C1.6640625 1.1484375 1.6640625 1.1484375 3 3 C3.3984375 5.8125 3.3984375 5.8125 3.375 9 C3.38273437 10.051875 3.39046875 11.10375 3.3984375 12.1875 C3 15 3 15 1.6640625 16.84765625 C-0.96249509 18.66651655 -2.90508986 18.45134106 -6 18 C-8.19033179 15.78910172 -8.94025774 14.40355308 -9.3984375 11.30859375 C-9.39070313 10.36113281 -9.38296875 9.41367187 -9.375 8.4375 C-9.38273437 7.48746094 -9.39046875 6.53742187 -9.3984375 5.55859375 C-9 3 -9 3 -7.6640625 1.18359375 C-5.07521688 -0.65776828 -3.08013011 -0.38501626 0 0 Z " fill="#FB9600" transform="translate(282,50)"/>
</svg>
